<?xml version="1.0" encoding="utf-8"?>
<!-- Generator: Adobe Illustrator 16.0.0, SVG Export Plug-In . SVG Version: 6.00 Build 0)  -->
<!DOCTYPE svg PUBLIC "-//W3C//DTD SVG 1.1//EN" "http://www.w3.org/Graphics/SVG/1.1/DTD/svg11.dtd">
<svg version="1.1" id="Layer_1" xmlns="http://www.w3.org/2000/svg" xmlns:xlink="http://www.w3.org/1999/xlink" x="0px" y="0px"
	 width="100px" height="100px" viewBox="0 0 100 100" enable-background="new 0 0 100 100" xml:space="preserve">
<path fill="#CBF2FF" d="M10.659,37.248l3.257,7.911l12.547-5.171l9.956,6.36l-3.756,1.545l-4.938,2.248l8.681,3.522l-9.94,6.348
	l-12.547-5.168l-3.258,7.91l7.005,2.887L5.869,73.176l4.603,7.191l11.951-7.641l-0.339,7.902l8.55,0.369l0.589-13.891l9.202-5.887
	l-0.375,6.572l1.912-1.279l3.709-2.602v11.383L34.557,83.08l4.909,7.006l6.205-4.346v13.99h8.535V85.543l6.478,4.541l4.909-7.006
	l-11.387-7.977V63.699l4.012,2.814l1.912,1.279l-0.372-6.453l9.024,5.768l0.59,13.891l8.546-0.369l-0.334-7.902l11.951,7.641
	l4.596-7.191l-11.787-7.537l7.002-2.887l-3.259-7.91L73.538,60.01l-9.771-6.244l8.938-3.625l-4.938-2.248l-4.012-1.65l9.781-6.256
	l12.549,5.171l3.259-7.911l-7.002-2.887l11.787-7.534l-4.596-7.191l-11.951,7.636l0.334-7.902l-8.546-0.364l-0.59,13.89
	l-9.042,5.779l0.39-6.81l-1.912,1.285l-3.883,2.722V24.707l11.109-7.786l-4.91-7.003l-6.199,4.343V0.27h-8.538v14.185l-6.479-4.537
	l-4.907,7.002L45.797,24.9v10.938l-3.835-2.689l-1.912-1.285l0.399,6.927l-9.227-5.896l-0.589-13.89l-8.55,0.364l0.339,7.902
	l-11.951-7.636l-4.603,7.191l11.793,7.534L10.659,37.248z M45.938,42.961h8.13l4.065,7.041l-4.065,7.041h-8.13l-4.065-7.041
	L45.938,42.961z"/>
</svg>
